<svg id="visual" viewBox="0 0 1080 2300" width="1080" height="2300" xmlns="http://www.w3.org/2000/svg" xmlns:xlink="http://www.w3.org/1999/xlink" version="1.1"><path d="M0 1786L90 1793.2C180 1800.3 360 1814.7 540 1822.5C720 1830.3 900 1831.7 990 1832.3L1080 1833L1080 2301L990 2301C900 2301 720 2301 540 2301C360 2301 180 2301 90 2301L0 2301Z" fill="#686395"></path><path d="M0 1966L90 1946.7C180 1927.3 360 1888.7 540 1869C720 1849.3 900 1848.7 990 1848.3L1080 1848L1080 2301L990 2301C900 2301 720 2301 540 2301C360 2301 180 2301 90 2301L0 2301Z" fill="#4d497f"></path><path d="M0 2079L90 2076C180 2073 360 2067 540 2053.7C720 2040.3 900 2019.7 990 2009.3L1080 1999L1080 2301L990 2301C900 2301 720 2301 540 2301C360 2301 180 2301 90 2301L0 2301Z" fill="#3a376a"></path><path d="M0 2066L90 2086C180 2106 360 2146 540 2157.5C720 2169 900 2152 990 2143.5L1080 2135L1080 2301L990 2301C900 2301 720 2301 540 2301C360 2301 180 2301 90 2301L0 2301Z" fill="#2e2d55"></path></svg>